Coordinates
version=1
nRows=60
nColumns=12
inDegrees=yes

Units are S.I. units (second, meters, Newtons, ...)
Angles are in degrees

endheader
time	SC_y	SC_z	SC_x	AC_y	AC_z	AC_x	GH_y	GH_z	GH_yy	EL_x	PS_y
       0.0              -49.81          17.17          66.55          63.62         -12.04          15.69          98.74         -8.236          54.85          17.94          12.82
   0.03977               -49.8          17.17          66.54          63.62         -12.04          15.68          98.71         -8.225          54.84          17.94          12.83
   0.07954               -49.8          17.17          66.54          63.62         -12.04          15.68          98.67         -8.214          54.83          17.94          12.85
    0.1193              -49.79          17.16          66.53          63.62         -12.03          15.68          98.64         -8.202          54.83          17.94          12.87
    0.1591              -49.78          17.16          66.52          63.62         -12.03          15.67           98.6         -8.189          54.82          17.94          12.89
    0.1989              -49.78          17.16          66.51          63.62         -12.03          15.67          98.55         -8.176          54.81          17.94          12.91
    0.2386              -49.77          17.16          66.51          63.62         -12.02          15.66           98.5         -8.161           54.8          17.95          12.93
    0.2784              -49.76          17.15           66.5          63.62         -12.02          15.66          98.46         -8.145          54.79          17.95          12.96
    0.3182              -49.76          17.15          66.49          63.62         -12.01          15.65           98.4         -8.129          54.78          17.95          12.98
    0.3579              -49.75          17.15          66.48          63.62         -12.01          15.65          98.34         -8.111          54.76          17.95          13.01
    0.3977              -49.74          17.14          66.47          63.61          -12.0          15.64          98.28         -8.091          54.75          17.95          13.04
    0.4375              -49.73          17.14          66.46          63.61          -12.0          15.64          98.22         -8.071          54.74          17.95          13.07
    0.4772              -49.72          17.14          66.45          63.61         -11.99          15.63          98.15         -8.048          54.72          17.96           13.1
     0.517              -49.71          17.13          66.43          63.61         -11.99          15.62          98.07         -8.024           54.7          17.96          13.14
    0.5568              -49.69          17.13          66.42          63.61         -11.98          15.61          97.98         -7.998          54.69          17.96          13.18
    0.5966              -49.68          17.12           66.4          63.61         -11.97           15.6          97.89          -7.97          54.67          17.97          13.22
    0.6363              -49.66          17.12          66.39           63.6         -11.96           15.6           97.8         -7.939          54.65          17.97          13.27
    0.6761              -49.65          17.11          66.37           63.6         -11.95          15.59          97.69         -7.906          54.62          17.97          13.32
    0.7159              -49.63          17.11          66.35           63.6         -11.94          15.57          97.57         -7.869           54.6          17.98          13.38
    0.7556              -49.61           17.1          66.32           63.6         -11.93          15.56          97.44         -7.829          54.57          17.98          13.44
    0.7954              -49.59          17.09           66.3          63.59         -11.92          15.55           97.3         -7.785          54.54          17.98          13.51
    0.8352              -49.57          17.08          66.27          63.59         -11.91          15.53          97.15         -7.736          54.51          17.99          13.58
     0.875              -49.54          17.07          66.25          63.58         -11.89          15.52          96.98         -7.683          54.47           18.0          13.66
    0.9147              -49.51          17.06          66.21          63.58         -11.88           15.5          96.79         -7.624          54.43           18.0          13.75
    0.9545              -49.48          17.05          66.18          63.58         -11.86          15.48          96.58         -7.558          54.39          18.01          13.85
    0.9943              -49.45          17.04          66.14          63.57         -11.84          15.46          96.34         -7.484          54.34          18.02          13.97
     1.034              -49.41          17.02          66.09          63.56         -11.82          15.43          96.08         -7.402          54.28          18.02          14.09
     1.074              -49.36          17.01          66.04          63.56         -11.79           15.4          95.78         -7.309          54.22          18.03          14.24
     1.114              -49.31          16.99          65.98          63.55         -11.76          15.37          95.45         -7.204          54.14          18.04           14.4
     1.153              -49.26          16.97          65.92          63.54         -11.73          15.33          95.07         -7.086          54.06          18.06          14.58
     1.193              -49.19          16.94          65.84          63.53          -11.7          15.29          94.64          -6.95          53.97          18.07          14.78
     1.233              -49.12          16.92          65.76          63.52         -11.65          15.24          94.14         -6.794          53.86          18.09          15.02
     1.273              -49.03          16.88          65.66          63.51         -11.61          15.19          93.57         -6.614          53.74          18.11           15.3
     1.312              -48.93          16.85          65.55          63.49         -11.55          15.12           92.9         -6.405           53.6          18.13          15.62
     1.352              -48.81           16.8          65.41          63.47         -11.48          15.05          92.12         -6.161          53.43          18.15          15.99
     1.392              -48.68          16.75          65.25          63.45         -11.41          14.96           91.2         -5.873          53.23          18.18          16.43
     1.432              -48.51          16.69          65.07          63.43         -11.31          14.85           90.1          -5.53           53.0          18.22          16.96
     1.472              -48.32          16.62          64.84           63.4          -11.2          14.73          88.79          -5.12          52.72          18.26          17.58
     1.511              -48.08          16.53          64.57          63.36         -11.07          14.57          87.21         -4.623          52.38          18.31          18.34
     1.551              -47.79          16.43          64.24          63.32          -10.9          14.39          85.27         -4.017          51.96          18.38          19.27
     1.591              -47.43          16.29          63.83          63.26          -10.7          14.16          82.88         -3.268          51.45          18.45          20.42
     1.631              -46.98          16.13          63.32           63.2         -10.45          13.87          79.89         -2.334          50.81          18.55          21.85
      1.67              -46.42          15.92          62.67          63.11         -10.13          13.51          76.14         -1.158          50.01          18.67          23.65
      1.71               -45.7          15.66          61.85           63.0         -9.731          13.05          71.36         0.3368          48.99          18.83          25.93
      1.75              -44.79          15.32          60.81          62.86         -9.215          12.46          65.25           2.25          47.68          19.02          28.86
      1.79              -43.61          14.89          59.46          62.69         -8.552           11.7          57.41          4.706           46.0          19.28          32.62
     1.829              -42.11          14.33          57.74          62.46         -7.706          10.73          47.39          7.843          43.85           19.6          37.42
     1.869              -40.22          13.64          55.58          62.17         -6.643          9.519          34.79          11.79          41.16          20.01          43.45
     1.909              -37.92          12.79          52.95          61.83         -5.346          8.038          19.44          16.59          37.87          20.51           50.8
     1.949              -35.25          11.81           49.9          61.42         -3.844          6.322          1.642          22.17          34.06          21.09          59.33
     1.989              -32.36          10.75           46.6          60.98         -2.217          4.464         -17.63           28.2          29.94          21.71          68.56
     2.028              -29.48          9.681          43.29          60.55        -0.5895          2.605          -36.9          34.23          25.81          22.34          77.79
     2.068              -26.81          8.699          40.24          60.14         0.9131          0.889         -54.69           39.8           22.0          22.92          86.31
     2.108              -24.51          7.851          37.61           59.8          2.209        -0.5916         -70.04          44.61          18.71          23.42          93.66
     2.148              -22.62          7.156          35.45          59.51          3.273         -1.807         -82.64          48.55          16.02          23.82           99.7
     2.187              -21.12          6.602          33.73          59.28          4.119         -2.773         -92.66          51.69          13.87          24.15          104.5
     2.227              -19.94          6.169          32.39           59.1          4.782         -3.529         -100.5          54.15          12.19           24.4          108.3
     2.267              -19.02          5.832          31.34          58.97          5.298         -4.119         -106.6          56.06          10.88           24.6          111.2
     2.307              -18.31          5.568          30.52          58.86          5.701         -4.579         -111.4          57.55          9.862          24.76          113.5
     2.346              -17.75          5.361          29.88          58.77          6.018         -4.942         -115.1          58.73          9.058          24.88          115.3
